<?xml version="1.0" standalone="no"?>
<!DOCTYPE svg PUBLIC "-//W3C//DTD SVG 20010904//EN"
 "http://www.w3.org/TR/2001/REC-SVG-20010904/DTD/svg10.dtd">
<svg version="1.0" xmlns="http://www.w3.org/2000/svg"
 width="512.000000pt" height="512.000000pt" viewBox="0 0 512.000000 512.000000"
 preserveAspectRatio="xMidYMid meet">

<g transform="translate(0.000000,512.000000) scale(0.100000,-0.100000)"
fill="#000000" stroke="none">
<path d="M2205 4919 c-154 -71 -318 -147 -365 -169 -113 -52 -668 -307 -1112
-510 -197 -90 -355 -167 -350 -172 8 -8 775 -288 791 -288 5 0 11 21 13 47 l3
47 70 28 c176 73 503 170 715 212 420 83 771 80 1217 -10 213 -43 461 -113
648 -183 l100 -38 3 -81 c2 -61 6 -82 17 -82 7 0 98 36 202 81 103 44 198 85
211 90 l22 9 0 -385 0 -384 -72 -3 -73 -3 -3 -137 c-1 -76 1 -138 5 -138 4 0
48 23 97 50 49 28 93 50 99 50 6 0 55 -23 110 -51 61 -31 103 -47 108 -42 5 5
8 68 7 139 l-3 129 -83 3 -82 3 2 410 3 410 118 51 c64 28 117 53 117 57 0 4
-53 30 -117 58 l-118 52 0 74 c0 109 -43 157 -143 157 -46 0 -144 -24 -192
-48 l-35 -17 -390 174 c-214 95 -419 186 -455 201 -36 15 -222 98 -414 184
-192 86 -358 156 -370 155 -11 0 -147 -59 -301 -130z m2183 -661 l3 -37 -61
26 c-59 26 -60 27 -38 40 13 7 39 12 58 10 33 -2 35 -5 38 -39z m23 -151 c45
-30 51 -76 15 -112 -36 -36 -116 -36 -152 0 -36 36 -30 82 15 112 19 13 46 23
61 23 15 0 42 -10 61 -23z"/>
<path d="M2371 4089 c-287 -22 -637 -104 -942 -222 l-105 -40 -12 -556 c-14
-643 -16 -2678 -3 -2713 10 -26 140 -140 234 -206 l61 -42 110 0 c61 0 118 -5
126 -10 10 -6 17 -31 20 -71 l5 -61 48 -19 47 -19 0 80 c0 68 3 81 19 90 11 5
78 10 150 10 120 0 133 -2 152 -21 18 -18 21 -30 17 -89 -5 -95 -20 -110 -112
-111 l-71 -1 44 -14 c151 -47 474 -58 682 -23 152 26 179 38 84 39 -38 0 -75
4 -81 8 -23 15 -34 53 -34 115 0 94 6 97 169 97 73 0 141 -5 152 -10 16 -9 19
-22 19 -90 l0 -80 48 19 47 19 5 61 c3 40 10 65 20 71 8 5 66 10 128 10 l114
0 81 60 c45 33 110 86 144 117 l62 58 3 1639 c3 1629 3 1639 -17 1652 -34 22
-342 121 -493 159 -187 47 -403 82 -577 95 -155 11 -192 11 -344 -1z m1166
-1222 l28 -27 3 -267 c2 -189 -1 -275 -9 -295 -25 -61 35 -58 -1005 -58 l-951
0 -26 24 c-14 13 -29 39 -32 57 -3 19 -5 147 -3 286 3 249 3 252 27 277 13 14
35 27 50 29 14 2 446 4 958 3 l933 -1 27 -28z m-1718 -863 c12 -15 21 -37 21
-49 0 -12 -9 -34 -21 -49 -20 -25 -24 -26 -119 -26 -54 0 -106 3 -115 6 -26
10 -45 63 -34 94 17 43 36 50 145 50 99 0 103 -1 123 -26z m866 -2 c206 -98
245 -369 73 -516 -122 -105 -306 -99 -418 13 -168 168 -106 437 119 517 65 24
158 18 226 -14z m856 9 c17 -13 23 -29 23 -56 0 -62 -26 -75 -146 -75 -92 0
-101 2 -123 25 -14 13 -25 36 -25 50 0 14 11 37 25 50 22 23 31 25 123 25 83
0 104 -3 123 -19z m-1452 -175 c27 -25 34 -61 17 -95 -20 -38 -31 -41 -142
-41 -87 0 -97 2 -119 25 -30 29 -32 64 -5 98 25 32 44 36 147 33 62 -2 87 -7
102 -20z m1176 -6 c33 -31 33 -73 0 -105 -22 -23 -32 -25 -118 -25 -80 0 -98
3 -121 21 -20 16 -26 29 -26 59 0 62 41 81 163 76 65 -2 81 -6 102 -26z
m-1483 -267 c24 -21 25 -114 2 -137 -20 -20 -223 -23 -242 -4 -18 18 -15 123
4 142 23 24 210 23 236 -1z m358 -3 c25 -25 27 -95 4 -128 -14 -20 -23 -22
-124 -22 -101 0 -110 2 -124 22 -9 12 -16 41 -16 63 0 22 7 51 16 63 14 20 23
22 120 22 91 0 107 -3 124 -20z m1074 -2 c9 -12 16 -41 16 -63 0 -22 -7 -51
-16 -63 -14 -20 -23 -22 -123 -22 -128 0 -136 5 -136 87 0 76 12 83 141 83 95
0 104 -2 118 -22z m350 6 c19 -19 22 -124 4 -142 -8 -8 -49 -12 -119 -12 -129
0 -139 6 -139 82 0 80 12 88 136 88 80 0 106 -3 118 -16z m-1782 -311 c24 -22
25 -109 1 -135 -13 -15 -32 -18 -115 -18 -132 0 -138 4 -138 85 0 50 4 66 18
74 9 6 62 11 116 11 79 0 103 -3 118 -17z m362 -5 c23 -33 21 -103 -4 -128
-17 -17 -33 -20 -124 -20 -97 0 -106 2 -120 22 -9 12 -16 41 -16 63 0 22 7 51
16 63 14 20 23 22 124 22 101 0 110 -2 124 -22z m354 10 c7 -7 12 -39 12 -75
0 -79 -7 -83 -136 -83 -120 0 -134 9 -134 83 0 79 12 87 140 87 69 0 110 -4
118 -12z m354 -5 c23 -21 25 -99 2 -131 -14 -20 -23 -22 -123 -22 -70 0 -111
4 -119 12 -16 16 -16 130 0 146 8 8 49 12 117 12 83 0 108 -3 123 -17z m362
-5 c9 -12 16 -41 16 -63 0 -22 -7 -51 -16 -63 -14 -20 -23 -22 -123 -22 -128
0 -136 5 -136 85 0 80 8 85 136 85 100 0 109 -2 123 -22z m350 6 c11 -10 16
-34 16 -69 0 -79 -10 -85 -135 -85 -125 0 -135 6 -135 85 0 79 10 85 135 85
81 0 107 -3 119 -16z m-1774 -313 c16 -31 12 -112 -7 -133 -14 -15 -32 -18
-119 -18 -125 0 -134 6 -134 89 0 31 5 62 12 69 8 8 50 12 125 12 101 0 113
-2 123 -19z m354 -3 c23 -33 21 -103 -4 -128 -17 -17 -33 -20 -120 -20 -87 0
-103 3 -120 20 -25 25 -27 95 -4 128 14 20 23 22 124 22 101 0 110 -2 124 -22z
m354 10 c7 -7 12 -39 12 -75 0 -79 -7 -83 -136 -83 -121 0 -134 9 -134 86 0
78 10 84 139 84 70 0 111 -4 119 -12z m356 -4 c24 -23 21 -109 -4 -134 -17
-17 -33 -20 -116 -20 -127 0 -134 4 -134 83 0 36 5 68 12 75 19 19 222 16 242
-4z m360 -6 c23 -33 21 -103 -4 -128 -17 -17 -33 -20 -118 -20 -124 0 -137 8
-137 83 0 82 8 87 136 87 100 0 109 -2 123 -22z m354 10 c7 -7 12 -37 12 -67
0 -83 -12 -91 -133 -91 -123 0 -137 9 -137 82 0 85 4 88 133 88 75 0 117 -4
125 -12z m-1724 -334 c12 -11 16 -36 16 -90 0 -110 -6 -114 -170 -114 -164 0
-170 4 -170 114 0 106 0 106 170 106 113 0 142 -3 154 -16z m442 -9 c23 -34
16 -145 -10 -174 -17 -19 -31 -21 -149 -21 -166 0 -167 1 -167 115 0 50 5 86
12 93 8 8 57 12 155 12 141 0 143 0 159 -25z m432 13 c7 -7 12 -43 12 -92 0
-115 -1 -116 -166 -116 -131 0 -133 0 -153 26 -26 34 -30 137 -5 172 14 21 22
22 158 22 97 0 146 -4 154 -12z m-7 -318 c16 -9 19 -22 19 -92 0 -118 -1 -118
-166 -118 -131 0 -133 0 -153 26 -26 34 -30 137 -5 172 14 21 22 22 150 22 75
0 144 -5 155 -10z"/>
<path d="M1752 2827 c-92 -34 -143 -111 -150 -228 -8 -130 36 -214 133 -255
39 -17 53 -17 243 -11 l42 1 0 78 c0 43 -4 78 -8 78 -5 0 -17 -18 -27 -40 -25
-55 -87 -110 -124 -110 -76 0 -111 78 -111 244 0 172 29 238 103 238 51 0 82
-23 118 -87 31 -56 56 -74 45 -32 -3 12 -6 48 -6 81 0 50 -2 57 -14 47 -11 -9
-25 -10 -53 -2 -49 14 -149 13 -191 -2z"/>
<path d="M2242 2827 c-93 -35 -143 -111 -150 -228 -12 -204 114 -307 321 -263
59 13 81 14 89 6 24 -24 28 -10 28 84 0 80 3 99 18 110 14 11 1 13 -90 14 -66
0 -108 -4 -108 -10 0 -5 9 -10 20 -10 19 0 20 -7 20 -89 0 -72 -3 -90 -16 -95
-53 -21 -105 16 -123 89 -14 55 -14 248 0 297 16 58 48 90 91 90 48 0 77 -21
118 -86 19 -30 38 -55 43 -56 4 0 7 33 7 73 l0 74 -32 1 c-18 0 -71 3 -118 6
-56 4 -96 1 -118 -7z"/>
<path d="M3255 2828 c-10 -29 -164 -444 -171 -461 -4 -10 -16 -23 -28 -27 -15
-6 -1 -8 44 -8 36 1 53 3 38 5 -34 5 -34 17 -5 98 l22 60 71 3 72 3 25 -76
c19 -54 23 -77 14 -80 -7 -2 -19 -6 -27 -8 -8 -3 40 -6 108 -6 80 -1 121 3
117 9 -3 6 -12 10 -20 10 -7 0 -21 19 -29 43 -9 23 -49 132 -90 242 -73 199
-73 200 -104 203 -20 2 -34 -2 -37 -10z m6 -223 l26 -85 -58 0 c-33 0 -59 3
-59 7 0 14 55 163 60 163 3 0 17 -38 31 -85z"/>
<path d="M2610 2821 l25 -7 0 -234 0 -234 -25 -7 c-14 -4 40 -7 120 -6 80 0
124 2 98 4 l-48 4 0 100 0 99 53 1 c67 0 134 26 161 62 16 22 21 43 21 87 -1
51 -5 63 -29 89 -16 16 -47 34 -71 40 -47 12 -347 14 -305 2z m238 -25 c17
-16 26 -103 18 -161 -8 -51 -35 -85 -66 -85 -19 0 -20 7 -20 136 l0 136 28 -7
c15 -3 33 -12 40 -19z"/>
</g>
</svg>
